<svg height="512pt" viewBox="0 0 512 512" width="512pt" xmlns="http://www.w3.org/2000/svg" xmlns:xlink="http://www.w3.org/1999/xlink"><linearGradient id="a" gradientUnits="userSpaceOnUse" x1="255.78283924" x2="255.78283924" y1="0" y2="511.99988448"><stop offset="0" stop-color="#2af598"/><stop offset="1" stop-color="#009efd"/></linearGradient><path d="m503.007812 175.207031-171.125-24.34375-76.058593-150.863281-76.058594 150.863281-171.125 24.34375 123.863281 118.195313-29.125 166.253906 152.445313-78.460938 152.449219 78.460938-29.128907-166.253906zm-247.183593 160.980469-99.125 51.015625 18.917969-107.980469-79.664063-76.015625 110.140625-15.667969 49.730469-98.640624 49.730469 98.640624 110.140624 15.667969-79.664062 76.015625 18.917969 107.980469zm131.96875-222.15625-31.679688-24.453125 44.023438-57.027344 31.675781 24.453125zm123.773437 204.035156-13.417968 37.703125-71.875-25.582031 13.417968-37.703125zm-386.425781-203.863281-45.023437-57.027344 31.410156-24.796875 45.023437 57.027344zm-53.265625 176.933594 13.878906 37.535156-71.871094 26.578125-13.882812-37.53125zm163.941406 143.828125h40.015625v77.035156h-40.015625zm0 0" fill="url(#a)"/></svg>