<svg height="682pt" viewBox="-21 -21 682 682.66669" width="682pt" xmlns="http://www.w3.org/2000/svg"><path d="m629.09375 219.007812-213.90625-30.429687-95.074219-188.578125-95.074219 188.578125-213.90625 30.429687 154.832032 147.746094-36.40625 207.816406 190.554687-98.078124 190.5625 98.078124-36.410156-207.816406zm-308.980469 201.226563-123.90625 63.769531 23.648438-134.976562-99.582031-95.019532 137.675781-19.585937 62.164062-123.296875 62.164063 123.296875 137.675781 19.585937-99.582031 95.019532 23.648437 134.976562zm164.960938-277.695313-39.597657-30.566406 55.027344-71.285156 39.59375 30.566406zm154.71875 255.042969-16.773438 47.128907-89.84375-31.976563 16.773438-47.128906zm-483.035157-254.828125-56.277343-71.285156 39.261719-30.996094 56.28125 71.285156zm-66.582031 221.167969 17.351563 46.917969-89.839844 33.222656-17.355469-46.914062zm204.929688 179.785156h50.019531v96.292969h-50.019531zm0 0"/></svg>